<?xml version="1.0" encoding="utf-8"?>
<!-- Generator: Adobe Illustrator 26.0.1, SVG Export Plug-In . SVG Version: 6.00 Build 0)  -->
<svg version="1.1" id="Layer_1" xmlns="http://www.w3.org/2000/svg" xmlns:xlink="http://www.w3.org/1999/xlink" x="0px" y="0px"
	 viewBox="0 0 612 792" style="enable-background:new 0 0 612 792;" xml:space="preserve">
<style type="text/css">
	.st0{fill:#FBD063;}
	.st1{fill:#F9F9F9;}
</style>
<g>
	<path class="st0" d="M-430.8,527.2c-0.2-0.1-0.6-0.2-0.6-0.3c0-0.7,0-1.5,0-2.2c0-227.5,0-455,0-682.5c481,0,962,0,1443,0
		c0,188.2,0,376.4,0,564.5c-1.2,0-2.4-0.2-3.5-0.1c-22.7,1.9-45.4,3.8-68.1,5.7c-22.2,1.9-44.3,3.7-66.5,5.5c-24.1,2-48.2,4-72.3,6
		c-22,1.8-43.9,3.6-65.9,5.5c-22,1.8-43.9,3.6-65.9,5.5c-24,2-48,4-72,6c-22.1,1.8-44.1,3.6-66.2,5.5c-25,2.1-50,4.2-74.9,6.2
		c-21.7,1.8-43.5,3.6-65.2,5.4c-21.5,1.8-43.1,3.6-64.6,5.4c-24.7,2-49.3,4.1-73.9,6.2c-21.4,1.8-42.8,3.5-64.3,5.3
		c-23.9,2-47.8,4-71.7,6c-22.1,1.8-44.1,3.7-66.2,5.5c-24.1,2-48.2,4-72.3,6c-22,1.8-43.9,3.6-65.9,5.5c-22.2,1.8-44.4,3.7-66.5,5.5
		c-24.7,2-49.3,4.1-74,6.2c-21.4,1.8-42.8,3.5-64.3,5.3c-24,2-48,4-72,6c-21.2,1.8-42.4,3.5-63.6,5.3
		C-429.1,526.2-429.9,526.8-430.8,527.2z"/>
	<path class="st1" d="M1011.6,527.1H-430.8c0.9-0.4,1.7-1,2.6-1.1c21.2-1.8,42.4-3.5,63.6-5.3c24-2,48-4,72-6
		c21.4-1.8,42.8-3.5,64.3-5.3c24.6-2,49.3-4.1,73.9-6.2c22.2-1.8,44.3-3.7,66.5-5.5c22-1.8,43.9-3.6,65.9-5.5c24.1-2,48.2-4,72.3-6
		c22.1-1.8,44.1-3.7,66.2-5.5c23.9-2,47.8-4,71.7-6c21.4-1.8,42.8-3.5,64.2-5.3c24.6-2,49.3-4.1,73.9-6.2
		c21.5-1.8,43.1-3.6,64.6-5.4c21.7-1.8,43.5-3.6,65.2-5.4c25-2.1,50-4.2,74.9-6.2c22.1-1.8,44.1-3.6,66.2-5.5c24-2,48-4,72-6
		c22-1.8,43.9-3.6,65.9-5.5c22-1.8,43.9-3.6,65.9-5.5c24.1-2,48.2-4,72.3-6c22.2-1.9,44.3-3.7,66.5-5.5c22.7-1.9,45.4-3.8,68.1-5.7
		c1.2-0.1,2.3,0,3.5,0.1V527.1z"/>
</g>
</svg>
